<svg width="42" height="43" viewBox="0 0 42 43" fill="none" xmlns="http://www.w3.org/2000/svg">
<path fill-rule="evenodd" clip-rule="evenodd" d="M3.5 11.2085C3.5 10.2802 3.86875 9.38997 4.52513 8.73359C5.1815 8.07721 6.07174 7.70847 7 7.70847H35C35.9283 7.70847 36.8185 8.07721 37.4749 8.73359C38.1313 9.38997 38.5 10.2802 38.5 11.2085V32.2085C38.5 33.1367 38.1313 34.027 37.4749 34.6833C36.8185 35.3397 35.9283 35.7085 35 35.7085H7C6.07174 35.7085 5.1815 35.3397 4.52513 34.6833C3.86875 34.027 3.5 33.1367 3.5 32.2085V11.2085ZM15.6835 19.7065C16.0882 19.4951 16.5415 19.3945 16.9975 19.4148C17.4536 19.4351 17.8962 19.5755 18.2805 19.822C18.4738 19.9465 18.6897 20.0318 18.9159 20.0729C19.1421 20.114 19.3743 20.1102 19.599 20.0616C19.8237 20.013 20.0367 19.9206 20.2257 19.7897C20.4148 19.6588 20.5762 19.492 20.7008 19.2987C20.8253 19.1054 20.9106 18.8895 20.9517 18.6633C20.9928 18.4371 20.989 18.205 20.9404 17.9802C20.8918 17.7555 20.7994 17.5425 20.6685 17.3535C20.5376 17.1644 20.3708 17.003 20.1775 16.8785C19.2726 16.2956 18.2292 15.9633 17.1539 15.9155C16.0785 15.8678 15.0098 16.1064 14.0568 16.6068C13.1039 17.1073 12.3008 17.8517 11.7297 18.7641C11.1585 19.6765 10.8398 20.7241 10.806 21.7999C10.7722 22.8758 11.0246 23.9414 11.5374 24.8878C12.0501 25.8342 12.8049 26.6275 13.7246 27.1868C14.6443 27.7461 15.696 28.0512 16.7722 28.071C17.8484 28.0909 18.9106 27.8247 19.8503 27.2997C20.0509 27.1876 20.2274 27.037 20.3699 26.8566C20.5123 26.6762 20.6178 26.4695 20.6804 26.2484C20.743 26.0272 20.7614 25.7959 20.7345 25.5676C20.7077 25.3393 20.6361 25.1186 20.524 24.918C20.4119 24.7173 20.2613 24.5408 20.0809 24.3983C19.9005 24.2559 19.6938 24.1504 19.4727 24.0878C19.2515 24.0253 19.0202 24.0069 18.7919 24.0337C18.5636 24.0605 18.3429 24.1321 18.1422 24.2442C17.5405 24.5703 16.8339 24.6439 16.1778 24.449C15.5218 24.254 14.9701 23.8065 14.644 23.2047C14.3179 22.603 14.2443 21.8964 14.4392 21.2403C14.6342 20.5843 15.0818 20.0325 15.6835 19.7065ZM26.509 19.7065C26.9137 19.4951 27.367 19.3945 27.823 19.4148C28.2791 19.4351 28.7217 19.5755 29.106 19.822C29.2993 19.9465 29.5152 20.0318 29.7414 20.0729C29.9676 20.114 30.1998 20.1102 30.4245 20.0616C30.6492 20.013 30.8622 19.9206 31.0512 19.7897C31.2403 19.6588 31.4017 19.492 31.5262 19.2987C31.6508 19.1054 31.7361 18.8895 31.7772 18.6633C31.8183 18.4371 31.8145 18.205 31.7659 17.9802C31.7173 17.7555 31.6249 17.5425 31.494 17.3535C31.3631 17.1644 31.1963 17.003 31.003 16.8785C30.0981 16.2956 29.0547 15.9633 27.9794 15.9155C26.904 15.8678 25.8353 16.1064 24.8823 16.6068C23.9294 17.1073 23.1263 17.8517 22.5552 18.7641C21.984 19.6765 21.6653 20.7241 21.6315 21.7999C21.5977 22.8758 21.8501 23.9414 22.3629 24.8878C22.8756 25.8342 23.6304 26.6275 24.5501 27.1868C25.4698 27.7461 26.5215 28.0512 27.5977 28.071C28.6739 28.0909 29.7361 27.8247 30.6757 27.2997C30.8764 27.1876 31.0529 27.037 31.1954 26.8566C31.3378 26.6762 31.4433 26.4695 31.5059 26.2484C31.5685 26.0272 31.5869 25.7959 31.56 25.5676C31.5332 25.3393 31.4616 25.1186 31.3495 24.918C31.2374 24.7173 31.0868 24.5408 30.9064 24.3983C30.726 24.2559 30.5193 24.1504 30.2982 24.0878C30.077 24.0253 29.8457 24.0069 29.6174 24.0337C29.3891 24.0605 29.1684 24.1321 28.9677 24.2442C28.366 24.5703 27.6594 24.6439 27.0033 24.449C26.3473 24.254 25.7956 23.8065 25.4695 23.2047C25.1434 22.603 25.0698 21.8964 25.2647 21.2403C25.4597 20.5843 25.9073 20.0325 26.509 19.7065Z" fill="white"/>
</svg>
