<svg width="49" height="49" viewBox="0 0 49 49" fill="none" xmlns="http://www.w3.org/2000/svg">
<g clip-path="url(#clip0_4_15)">
<path fill-rule="evenodd" clip-rule="evenodd" d="M26.6198 32.3119C26.0573 32.8737 25.2948 33.1892 24.4998 33.1892C23.7048 33.1892 22.9423 32.8737 22.3798 32.3119L11.0638 20.9999C10.5013 20.4371 10.1854 19.6739 10.1855 18.8782C10.1857 18.0825 10.502 17.3194 11.0648 16.7569C11.6276 16.1944 12.3908 15.8784 13.1865 15.8786C13.9822 15.8788 14.7453 16.1951 15.3078 16.7579L24.4998 25.9499L33.6918 16.7579C34.2574 16.2111 35.015 15.9084 35.8016 15.9149C36.5882 15.9213 37.3408 16.2365 37.8973 16.7924C38.4538 17.3484 38.7696 18.1007 38.7768 18.8873C38.784 19.6739 38.482 20.4318 37.9358 20.9979L26.6218 32.3139L26.6198 32.3119Z" fill="white"/>
</g>
<defs>
<clipPath id="clip0_4_15">
<rect width="48" height="48" fill="white" transform="translate(0.5 0.191895)"/>
</clipPath>
</defs>
</svg>
