<svg width="36" height="37" viewBox="0 0 36 37" fill="none" xmlns="http://www.w3.org/2000/svg">
<mask id="mask0_5_109" style="mask-type:luminance" maskUnits="userSpaceOnUse" x="3" y="4" width="30" height="30">
<path d="M29.25 5.20847H6.75C5.50736 5.20847 4.5 6.21582 4.5 7.45847V29.9585C4.5 31.2011 5.50736 32.2085 6.75 32.2085H29.25C30.4926 32.2085 31.5 31.2011 31.5 29.9585V7.45847C31.5 6.21582 30.4926 5.20847 29.25 5.20847Z" fill="white" stroke="white" stroke-width="2" stroke-linecap="round" stroke-linejoin="round"/>
<path d="M15.75 13.4585H9.75V23.9585H15.375M9.75 18.7085H15.375M19.5 14.9585V23.9585V19.0835C19.5 18.1884 19.8556 17.3299 20.4885 16.697C21.1215 16.064 21.9799 15.7085 22.875 15.7085C23.7701 15.7085 24.6285 16.064 25.2615 16.697C25.8944 17.3299 26.25 18.1884 26.25 19.0835V23.9585" stroke="black" stroke-width="2" stroke-linecap="round" stroke-linejoin="round"/>
</mask>
<g mask="url(#mask0_5_109)">
<path d="M0 0.708466H36V36.7085H0V0.708466Z" fill="white"/>
</g>
</svg>
