<svg width="43" height="44" viewBox="0 0 43 44" fill="none" xmlns="http://www.w3.org/2000/svg">
<path fill-rule="evenodd" clip-rule="evenodd" d="M33.1457 10.6799H28.6665C27.9537 10.6799 27.2702 10.3968 26.7662 9.89275C26.2621 9.38875 25.979 8.70517 25.979 7.9924C25.979 7.27963 26.2621 6.59606 26.7662 6.09205C27.2702 5.58805 27.9537 5.3049 28.6665 5.3049H34.0415C35.2295 5.3049 36.3687 5.77681 37.2088 6.61682C38.0488 7.45683 38.5207 8.59612 38.5207 9.78407V15.1591C38.5207 15.8718 38.2375 16.5554 37.7335 17.0594C37.2295 17.5634 36.5459 17.8466 35.8332 17.8466C35.1204 17.8466 34.4368 17.5634 33.9328 17.0594C33.4288 16.5554 33.1457 15.8718 33.1457 15.1591V10.6799ZM14.3332 10.6799H9.854V15.1591C9.854 15.8718 9.57086 16.5554 9.06685 17.0594C8.56285 17.5634 7.87927 17.8466 7.1665 17.8466C6.45373 17.8466 5.77016 17.5634 5.26615 17.0594C4.76215 16.5554 4.479 15.8718 4.479 15.1591V9.78407C4.479 8.59612 4.95091 7.45683 5.79092 6.61682C6.63093 5.77681 7.77022 5.3049 8.95817 5.3049H14.3332C15.0459 5.3049 15.7295 5.58805 16.2335 6.09205C16.7375 6.59606 17.0207 7.27963 17.0207 7.9924C17.0207 8.70517 16.7375 9.38875 16.2335 9.89275C15.7295 10.3968 15.0459 10.6799 14.3332 10.6799ZM14.3332 33.9716H9.854V29.4924C9.854 28.7796 9.57086 28.0961 9.06685 27.592C8.56285 27.088 7.87927 26.8049 7.1665 26.8049C6.45373 26.8049 5.77016 27.088 5.26615 27.592C4.76215 28.0961 4.479 28.7796 4.479 29.4924V34.8674C4.479 36.0553 4.95091 37.1946 5.79092 38.0346C6.63093 38.8747 7.77022 39.3466 8.95817 39.3466H14.3332C15.0459 39.3466 15.7295 39.0634 16.2335 38.5594C16.7375 38.0554 17.0207 37.3718 17.0207 36.6591C17.0207 35.9463 16.7375 35.2627 16.2335 34.7587C15.7295 34.2547 15.0459 33.9716 14.3332 33.9716ZM28.6665 33.9716H33.1457V29.4924C33.1457 28.7796 33.4288 28.0961 33.9328 27.592C34.4368 27.088 35.1204 26.8049 35.8332 26.8049C36.5459 26.8049 37.2295 27.088 37.7335 27.592C38.2375 28.0961 38.5207 28.7796 38.5207 29.4924V34.8674C38.5207 36.0553 38.0488 37.1946 37.2088 38.0346C36.3687 38.8747 35.2295 39.3466 34.0415 39.3466H28.6665C27.9537 39.3466 27.2702 39.0634 26.7662 38.5594C26.2621 38.0554 25.979 37.3718 25.979 36.6591C25.979 35.9463 26.2621 35.2627 26.7662 34.7587C27.2702 34.2547 27.9537 33.9716 28.6665 33.9716Z" fill="white"/>
</svg>
