<svg width="40" height="40" viewBox="0 0 40 40" fill="none" xmlns="http://www.w3.org/2000/svg">
<path fill-rule="evenodd" clip-rule="evenodd" d="M20.2075 3.13721C19.1313 3.13721 18.1958 3.82576 16.3264 5.20451L13.5116 7.27999C13.2172 7.49752 13.07 7.60546 12.9114 7.69705C12.7527 7.78864 12.5843 7.8606 12.249 8.0078L9.045 9.40781C6.91554 10.3401 5.85082 10.8045 5.31273 11.7352C4.77464 12.6658 4.90385 13.8221 5.16389 16.1315L5.55315 19.6069C5.59404 19.97 5.61366 20.1516 5.61366 20.3348C5.61366 20.5179 5.59404 20.6995 5.55315 21.0626L5.16389 24.538C4.90548 26.8474 4.77628 28.0021 5.31273 28.9343C5.85245 29.8666 6.91554 30.3311 9.045 31.2617L12.2506 32.6617C12.5843 32.8089 12.7527 32.8809 12.9114 32.9724C13.0684 33.064 13.2172 33.172 13.5116 33.3895L16.3247 35.465C18.1974 36.8437 19.1329 37.5323 20.2075 37.5323C21.282 37.5323 22.2191 36.8437 24.0886 35.465L26.9033 33.3895C27.1977 33.172 27.3449 33.064 27.5035 32.9724C27.6622 32.8809 27.8306 32.8089 28.1659 32.6617L31.3699 31.2617C33.4994 30.3294 34.5641 29.865 35.1022 28.9343C35.6403 28.0037 35.5111 26.8474 35.2494 24.538L34.8618 21.0626C34.8209 20.6995 34.7996 20.5179 34.7996 20.3348C34.7996 20.1516 34.8209 19.97 34.8618 19.6069L35.251 16.1315C35.5094 13.8221 35.6386 12.6674 35.1022 11.7352C34.5625 10.8029 33.4994 10.3384 31.3699 9.40781L28.1643 8.0078C27.9384 7.9166 27.7178 7.81285 27.5035 7.69705C27.2958 7.56932 27.0954 7.43009 26.9033 7.27999L24.0902 5.20451C22.2159 3.82576 21.2804 3.13721 20.2075 3.13721ZM20.2075 26.8768C21.9425 26.8768 23.6065 26.1876 24.8334 24.9607C26.0603 23.7338 26.7495 22.0698 26.7495 20.3348C26.7495 18.5997 26.0603 16.9357 24.8334 15.7088C23.6065 14.4819 21.9425 13.7927 20.2075 13.7927C18.4724 13.7927 16.8084 14.4819 15.5815 15.7088C14.3546 16.9357 13.6654 18.5997 13.6654 20.3348C13.6654 22.0698 14.3546 23.7338 15.5815 24.9607C16.8084 26.1876 18.4724 26.8768 20.2075 26.8768Z" fill="white"/>
</svg>
