<svg width="41" height="41" viewBox="0 0 41 41" fill="none" xmlns="http://www.w3.org/2000/svg">
<path d="M34.3033 19.5092L27.4016 9.85708C26.8208 9.03708 25.8812 8.54167 24.8733 8.54167C22.3279 8.54167 20.8587 11.4117 22.3279 13.4788L27.3333 20.5L22.3279 27.5213C20.8416 29.5883 22.3279 32.4583 24.8733 32.4583C25.8812 32.4583 26.8379 31.9629 27.4187 31.1429L34.3204 21.4908C34.7304 20.8929 34.7304 20.1071 34.3033 19.5092Z" fill="white"/>
<path d="M22.3448 19.5092L15.4602 9.85708C14.8623 9.03708 13.9227 8.54167 12.9148 8.54167C10.3694 8.54167 8.88315 11.4117 10.3694 13.4788L15.3748 20.5L10.3694 27.5213C8.88315 29.5883 10.3694 32.4583 12.9148 32.4583C13.9227 32.4583 14.8794 31.9629 15.4602 31.1429L22.3619 21.4908C22.7719 20.8929 22.7719 20.1071 22.3448 19.5092Z" fill="white"/>
</svg>
