<svg width="53" height="52" viewBox="0 0 53 52" fill="none" xmlns="http://www.w3.org/2000/svg">
<path d="M34.7287 41.1667C33.537 41.1667 32.5172 40.7427 31.6693 39.8948C30.8215 39.0469 30.3968 38.0264 30.3953 36.8333V15.1667C30.3953 13.975 30.82 12.9552 31.6693 12.1073C32.5187 11.2594 33.5385 10.8348 34.7287 10.8333C35.9189 10.8319 36.9394 11.2566 37.7902 12.1073C38.641 12.9581 39.0649 13.9779 39.062 15.1667V36.8333C39.062 38.025 38.6381 39.0455 37.7902 39.8948C36.9423 40.7442 35.9218 41.1681 34.7287 41.1667ZM17.3953 41.1667C16.2037 41.1667 15.1839 40.7427 14.336 39.8948C13.4881 39.0469 13.0635 38.0264 13.062 36.8333V15.1667C13.062 13.975 13.4867 12.9552 14.336 12.1073C15.1853 11.2594 16.2051 10.8348 17.3953 10.8333C18.5856 10.8319 19.6061 11.2566 20.4568 12.1073C21.3076 12.9581 21.7316 13.9779 21.7287 15.1667V36.8333C21.7287 38.025 21.3047 39.0455 20.4568 39.8948C19.609 40.7442 18.5885 41.1681 17.3953 41.1667Z" fill="white"/>
</svg>
