<svg width="42" height="41" viewBox="0 0 42 41" fill="none" xmlns="http://www.w3.org/2000/svg">
<path d="M7.17227 21.4908L14.0739 31.1429C14.6548 31.9629 15.5944 32.4583 16.6023 32.4583C19.1477 32.4583 20.6169 29.5883 19.1477 27.5212L14.1423 20.5L19.1477 13.4787C20.6339 11.4117 19.1477 8.54167 16.6023 8.54167C15.5944 8.54167 14.6377 9.03708 14.0569 9.85708L7.15519 19.5092C6.74519 20.1071 6.74519 20.8929 7.17227 21.4908Z" fill="white"/>
<path d="M19.1308 21.4908L26.0154 31.1429C26.6133 31.9629 27.5529 32.4583 28.5608 32.4583C31.1062 32.4583 32.5924 29.5883 31.1062 27.5212L26.1008 20.5L31.1062 13.4787C32.5924 11.4117 31.1062 8.54167 28.5608 8.54167C27.5529 8.54167 26.5962 9.03708 26.0154 9.85708L19.1137 19.5092C18.7037 20.1071 18.7037 20.8929 19.1308 21.4908Z" fill="white"/>
</svg>
