<svg width="33" height="33" viewBox="0 0 33 33" fill="none" xmlns="http://www.w3.org/2000/svg">
<path d="M30.2712 15.0235C29.8423 11.9375 28.4107 9.07813 26.1969 6.88582C23.9831 4.69352 21.1099 3.2899 18.0199 2.89119C14.9299 2.49248 11.7945 3.12079 9.09666 4.67934C6.39887 6.23789 4.28834 8.64021 3.09019 11.5162M2.21338 4.50179V11.5162H9.22783M2.21338 18.5307C2.64224 21.6167 4.07384 24.476 6.28766 26.6683C8.50147 28.8607 11.3747 30.2643 14.4647 30.663C17.5547 31.0617 20.6901 30.4334 23.3879 28.8748C26.0857 27.3163 28.1962 24.914 29.3944 22.0379M30.2712 29.0524V22.0379H23.2567" stroke="black" stroke-width="3.74841" stroke-linecap="round" stroke-linejoin="round"/>
</svg>
