<svg width="51" height="51" viewBox="0 0 51 51" fill="none" xmlns="http://www.w3.org/2000/svg">
<path d="M8.81325 29.5909C8.07152 28.3552 7.67969 26.9412 7.67969 25.5C7.67969 24.0588 8.07152 22.6447 8.81325 21.409C9.0412 21.0286 9.34622 20.7001 9.70871 20.4445C10.0712 20.189 10.4831 20.0121 10.9181 19.9253L14.5066 19.2067C14.7206 19.1644 14.9137 19.0499 15.0535 18.8824L19.4369 13.6193C21.9424 10.6094 23.1972 9.10659 24.3143 9.51144C25.4313 9.9163 25.4356 11.8749 25.4356 15.792V35.2122C25.4356 39.1272 25.4356 41.0837 24.3164 41.4906C23.1993 41.8934 21.9445 40.3905 19.4391 37.3827L15.0493 32.1175C14.91 31.9505 14.7178 31.836 14.5045 31.7932L10.9159 31.0747C10.481 30.9878 10.0691 30.8109 9.70659 30.5554C9.3441 30.2999 9.0412 29.9713 8.81325 29.5909Z" fill="white"/>
<path d="M30.811 18.0049C32.7887 19.9825 33.9045 22.6617 33.9153 25.4585C33.926 28.2553 32.8307 30.943 30.8683 32.9357" stroke="white" stroke-width="2.48154" stroke-linecap="round"/>
</svg>
